# 3ds Max Wavefront OBJ Exporter v0.97b - (c)2007 guruware
# File Created: 04.01.2017 10:21:51

mtllib Chilly_Bag.mtl

#
# object Bag
#

v  -12.6539 -55.7391 -7.7977
v  12.6539 -55.7429 -7.7977
v  14.0297 -62.0683 -0.0000
v  -13.9714 -62.0645 -0.0000
v  14.3844 0.8694 30.6207
v  -17.8809 0.8694 27.7663
v  -16.7955 -24.1638 25.0065
v  16.8033 -24.1638 24.7100
v  36.5845 -23.2608 -17.1305
v  37.3585 2.9195 -15.5067
v  42.0603 3.0603 -0.0000
v  41.7786 -26.3591 -0.0000
v  -11.7666 0.8694 -28.1206
v  16.8566 0.8694 -29.0151
v  16.2259 -24.1638 -25.6214
v  -15.3039 -24.1638 -24.7270
v  -35.5785 -25.8953 19.1768
v  -38.8915 0.8694 17.5530
v  -43.1597 1.0103 -0.0000
v  -41.9996 -28.9936 -0.0000
v  20.9746 -46.5246 14.8641
v  -25.4402 -50.2530 17.8433
v  35.0801 26.0197 -16.1651
v  40.7773 28.7626 -0.0000
v  36.5845 -23.2608 17.1305
v  39.1649 -39.6954 14.9521
v  44.3686 -45.6737 -0.0000
v  -24.9563 -50.0745 -11.6748
v  21.7323 -46.3867 -16.3553
v  -35.7441 25.4389 18.9256
v  -42.2745 28.1819 -0.0000
v  -35.0008 -25.8953 -17.1305
v  -40.5674 -47.2038 -11.7515
v  -45.3776 -47.5787 -0.0000
v  32.1496 -54.8549 -7.7977
v  37.3826 -60.9586 -0.0000
v  -12.6539 -55.7391 7.7977
v  -39.4684 -58.6536 7.7977
v  -44.1189 -63.2572 -0.0000
v  34.4065 2.9195 19.0525
v  -34.7596 0.8694 -20.1241
v  34.3986 26.0197 13.4183
v  15.4978 24.8264 24.9718
v  -33.4125 25.4389 -17.0070
v  -12.0367 25.4389 -26.8684
v  39.1649 -39.6954 -14.9521
v  -14.3785 25.4389 25.8974
v  36.2865 28.6150 -15.8755
v  41.4978 30.7502 0.0205
v  15.2122 25.4389 -27.7318
v  -37.8234 27.6874 18.6600
v  -44.6437 31.0318 -0.0151
v  12.6539 -55.7429 7.7977
v  -41.1451 -47.2038 16.1663
v  32.1496 -54.8549 7.7977
v  -39.4684 -58.6536 -7.7977
v  -45.6903 -54.6152 8.1094
v  -52.0069 -58.4947 -0.0000
v  43.2674 -54.0341 -8.1067
v  51.5089 -60.1280 -0.0000
v  -45.6903 -54.6152 -8.1094
v  43.2674 -54.0341 8.1067
v  -35.6549 27.6884 -16.6934
v  -13.2172 26.6198 -27.3537
v  35.9939 37.3279 14.1987
v  37.0605 34.2534 15.1551
v  45.1114 37.0660 0.1630
v  43.8975 40.1905 0.1332
v  -38.4521 35.6903 -16.0303
v  -38.3560 32.8695 -17.7050
v  -46.5220 38.2012 -0.1158
v  -45.0429 40.7171 -0.0948
v  -39.9597 35.9125 17.9971
v  -40.1318 33.0621 19.6479
v  -14.0962 30.9262 28.8820
v  -13.2734 33.1586 27.7302
v  17.5893 31.0924 28.0910
v  17.6970 33.6431 27.0274
v  36.1213 37.7556 -15.7599
v  37.3534 34.6389 -17.0977
v  15.9490 33.1663 -27.2467
v  15.5376 35.8516 -24.7195
v  -14.9377 31.3400 -28.6374
v  -15.7525 33.6078 -26.9052
v  26.6142 30.9495 1.6757
v  26.4061 28.2883 9.9403
v  33.3027 31.3317 -0.0176
v  36.8691 30.4479 -17.9076
v  44.1955 32.6500 0.1924
v  -38.1440 29.2259 20.8915
v  -46.0671 34.0853 -0.1297
v  -36.0718 29.0793 -18.9814
v  -12.9681 28.3009 -29.5562
v  35.6727 28.6150 13.4424
v  -14.6750 26.8163 26.6738
v  15.9805 26.1617 25.6395
v  15.8697 27.7110 -27.3488
v  33.4339 37.6098 -12.6063
v  38.5916 39.3747 1.7760
v  41.3336 41.1862 -0.1137
v  35.0023 38.4052 -14.4710
v  33.0932 37.6098 11.2329
v  34.8297 38.1462 13.0402
v  16.7103 34.1228 23.0356
v  17.4184 34.5362 25.4640
v  -12.4727 33.0090 22.3907
v  -12.5897 34.2066 25.6610
v  -37.0661 36.4209 15.0253
v  -39.0088 36.7679 16.6608
v  -40.5029 39.4468 -0.0339
v  -42.9399 40.8569 -0.0583
v  -35.6115 36.4228 -13.0606
v  -37.5835 36.6123 -14.6867
v  -15.4643 32.9958 -22.8565
v  -15.8830 34.0308 -25.1637
v  15.0730 34.4610 -20.9479
v  15.3024 35.9974 -22.9866
v  15.6296 29.6542 -29.2038
v  -14.5833 27.8515 29.0455
v  16.5151 27.5988 28.1343
v  36.3954 30.0761 15.5858
v  27.7690 28.7969 -12.1644
v  34.3928 31.8934 0.0203
v  12.4571 26.8140 -19.1681
v  -12.8054 25.3927 -21.7638
v  -29.3935 27.9875 -11.8261
v  -36.4889 33.0804 -0.1309
v  -30.6186 27.9936 13.7096
v  -10.5074 25.5116 22.2873
v  14.0786 26.0950 22.6484
v  27.2636 28.8274 10.4182
v  26.9493 28.2450 -11.6333
v  12.0771 26.2066 -18.3899
v  -12.4427 24.7776 -21.0043
v  -28.5501 27.4624 -11.2656
v  -35.4364 32.5079 -0.0849
v  -29.7440 27.4825 13.1297
v  -10.2015 24.8848 21.6279
v  13.6206 25.4800 21.9630
v  -29.2265 32.3463 2.5557
v  -11.1377 30.5585 3.8200
v  12.8991 29.1597 3.1004
# 142 vertices

vn 0.0237 -0.6700 -0.7420
vn 0.0055 -0.7234 -0.6904
vn 0.0247 -0.9997 -0.0000
vn 0.0517 -0.9987 0.0000
vn 0.1773 0.0155 0.9840
vn -0.2458 -0.0020 0.9693
vn -0.1427 -0.1521 0.9780
vn 0.1822 -0.2633 0.9473
vn 0.7193 0.0167 -0.6945
vn 0.7949 0.0239 -0.6063
vn 0.9984 0.0336 0.0445
vn 0.9971 0.0753 0.0069
vn -0.1759 -0.0328 -0.9839
vn 0.2768 -0.0355 -0.9603
vn 0.1683 -0.2054 -0.9641
vn -0.1682 -0.2315 -0.9582
vn -0.6412 -0.0287 0.7668
vn -0.7745 0.0161 0.6324
vn -0.9969 0.0195 -0.0765
vn -0.9958 0.0777 -0.0485
vn 0.1149 -0.4781 0.8708
vn -0.0381 -0.5367 0.8429
vn 0.7408 -0.0946 -0.6650
vn 0.9819 -0.1836 0.0473
vn 0.7183 -0.0602 0.6932
vn 0.5880 -0.0973 0.8030
vn 0.9565 0.2794 -0.0837
vn -0.0210 -0.4558 -0.8898
vn 0.0908 -0.5140 -0.8529
vn -0.6270 -0.1984 0.7533
vn -0.9188 -0.3882 -0.0709
vn -0.6717 -0.0536 -0.7389
vn -0.5724 -0.0784 -0.8162
vn -0.9386 0.3436 -0.0311
vn 0.0743 -0.6676 -0.7408
vn 0.0535 -0.9986 -0.0015
vn 0.0639 -0.7890 0.6111
vn -0.1606 -0.7479 0.6441
vn -0.3001 -0.9539 0.0002
vn 0.7391 0.0775 0.6691
vn -0.6818 0.0122 -0.7314
vn 0.7515 -0.1077 0.6509
vn 0.2568 -0.1690 0.9516
vn -0.6563 -0.1798 -0.7328
vn -0.1566 -0.2008 -0.9670
vn 0.6687 -0.1462 -0.7291
vn -0.1422 -0.2406 0.9602
vn 0.7469 -0.4930 -0.4461
vn 0.7583 -0.6518 0.0074
vn 0.2207 0.0813 -0.9720
vn -0.6679 -0.6350 0.3881
vn -0.8567 -0.5122 -0.0613
vn 0.0124 -0.6994 0.7146
vn -0.6330 -0.1570 0.7581
vn 0.0593 -0.6520 0.7559
vn -0.1209 -0.6438 -0.7555
vn -0.7482 -0.2059 0.6307
vn -0.9512 -0.3083 0.0079
vn 0.5116 -0.3393 -0.7894
vn 0.8306 -0.5555 -0.0398
vn -0.6197 -0.1780 -0.7644
vn 0.2957 -0.4948 0.8172
vn -0.6291 -0.6710 -0.3923
vn -0.1993 -0.6819 -0.7038
vn 0.4780 0.6692 0.5689
vn 0.7290 0.1721 0.6626
vn 0.9935 0.1092 0.0321
vn 0.7380 0.6738 0.0366
vn -0.5321 0.6060 -0.5912
vn -0.7218 0.0546 -0.6900
vn -0.9713 0.2309 -0.0577
vn -0.5547 0.8311 -0.0401
vn -0.5403 0.6307 0.5570
vn -0.7332 0.0919 0.6738
vn -0.1389 0.2788 0.9502
vn -0.0744 0.6994 0.7108
vn 0.3004 0.1302 0.9449
vn 0.2060 0.6176 0.7590
vn 0.4316 0.7188 -0.5450
vn 0.6954 0.2601 -0.6700
vn 0.1896 0.5610 -0.8058
vn 0.0530 0.8813 -0.4696
vn -0.2144 0.3353 -0.9174
vn -0.1448 0.7806 -0.6080
vn -0.0785 0.9948 0.0657
vn -0.0458 0.9651 0.2578
vn -0.0619 0.9979 -0.0194
vn 0.6730 -0.3281 -0.6629
vn 0.8790 -0.4761 0.0251
vn -0.5762 -0.4026 0.7113
vn -0.9638 -0.2591 -0.0634
vn -0.5746 -0.4656 -0.6731
vn -0.1314 -0.3173 -0.9392
vn 0.6757 -0.6069 0.4185
vn -0.1207 -0.7571 0.6420
vn 0.2413 -0.7245 0.6456
vn 0.3008 -0.3422 -0.8902
vn -0.5353 0.8021 0.2648
vn -0.6808 0.7306 -0.0514
vn 0.0210 0.9996 0.0172
vn -0.0436 0.9863 -0.1594
vn -0.5098 0.8241 -0.2469
vn 0.0062 0.9737 0.2279
vn -0.3223 0.7728 -0.5467
vn -0.0081 0.9682 0.2502
vn 0.1647 0.6020 -0.7813
vn 0.0207 0.9945 0.1022
vn 0.4406 0.8917 -0.1036
vn -0.0844 0.9555 0.2828
vn 0.6415 0.7671 0.0065
vn 0.1620 0.9867 -0.0091
vn 0.4262 0.8937 0.1400
vn -0.0726 0.9467 -0.3137
vn 0.2221 0.6705 0.7079
vn 0.0274 0.9995 0.0183
vn -0.2698 0.5902 0.7608
vn -0.1395 0.9655 0.2199
vn 0.2253 -0.1112 -0.9679
vn -0.1466 -0.4876 0.8607
vn 0.2377 -0.5085 0.8276
vn 0.6755 -0.4371 0.5938
vn -0.5683 0.6534 0.5000
vn -0.7603 0.6493 0.0171
vn -0.2531 0.5790 0.7750
vn 0.1919 0.5293 0.8265
vn 0.5708 0.7170 0.4001
vn 0.7396 0.6726 0.0229
vn 0.5570 0.7265 -0.4025
vn 0.1819 0.4483 -0.8752
vn -0.3202 0.4847 -0.8140
vn -0.6033 0.6957 -0.3899
vn -0.4591 0.8883 -0.0100
vn -0.4066 0.8700 0.2790
vn -0.2046 0.8169 0.5393
vn 0.1165 0.8000 0.5886
vn 0.4324 0.8847 0.1743
vn 0.4787 0.8779 0.0093
vn 0.4012 0.8961 -0.1897
vn 0.1501 0.7507 -0.6434
vn -0.2340 0.7981 -0.5552
vn -0.4510 0.8752 -0.1748
vn 0.0525 0.9967 -0.0624
vn -0.0029 0.9271 0.3749
vn 0.0327 0.9957 0.0870
vn 0.0129 0.9615 0.2745
vn 0.0392 0.9975 0.0584
vn -0.0297 0.9809 0.1925
vn -0.0252 0.9985 0.0479
vn -0.1031 0.9805 -0.1671
vn -0.0237 0.9862 -0.1638
vn -0.0081 0.9740 -0.2264
vn 0.0798 0.9571 -0.2787
# 152 vertex normals

vt 0.6879 0.9034 0.0000
vt 0.8000 0.9034 0.0000
vt 0.8071 0.9470 0.0000
vt 0.6822 0.9473 0.0000
vt 0.1947 0.6502 0.0000
vt 0.3312 0.6477 0.0000
vt 0.3309 0.7559 0.0000
vt 0.1853 0.7595 0.0000
vt 0.9089 0.7485 0.0000
vt 0.9214 0.6329 0.0000
vt 0.9914 0.6336 0.0000
vt 0.9859 0.7667 0.0000
vt 0.6950 0.6399 0.0000
vt 0.8165 0.6382 0.0000
vt 0.8141 0.7460 0.0000
vt 0.6783 0.7489 0.0000
vt 0.4170 0.7653 0.0000
vt 0.4296 0.6493 0.0000
vt 0.5039 0.6477 0.0000
vt 0.5066 0.7815 0.0000
vt 0.1679 0.8646 0.0000
vt 0.3709 0.8701 0.0000
vt 0.9132 0.5301 0.0000
vt 0.9889 0.5168 0.0000
vt 0.0940 0.7637 0.0000
vt 0.0881 0.8366 0.0000
vt 0.0244 0.8721 0.0000
vt 0.0168 0.7822 0.0000
vt 0.6337 0.8732 0.0000
vt 0.8388 0.8482 0.0000
vt 0.4156 0.5456 0.0000
vt 0.5022 0.5255 0.0000
vt 0.5878 0.7638 0.0000
vt 0.5638 0.8607 0.0000
vt 0.5075 0.8681 0.0000
vt 0.8866 0.8967 0.0000
vt 0.9118 0.9383 0.0000
vt 0.3173 0.9178 0.0000
vt 0.4376 0.9180 0.0000
vt 0.4629 0.9533 0.0000
vt 0.3252 0.9605 0.0000
vt 0.0977 0.6472 0.0000
vt 0.5935 0.6465 0.0000
vt 0.0812 0.5433 0.0000
vt 0.1817 0.5451 0.0000
vt 0.5859 0.5420 0.0000
vt 0.6900 0.5319 0.0000
vt 0.9154 0.8218 0.0000
vt 0.3156 0.5404 0.0000
vt 0.9164 0.5175 0.0000
vt 0.9893 0.5031 0.0000
vt 0.8109 0.5323 0.0000
vt 0.4226 0.5403 0.0000
vt 0.5017 0.5049 0.0000
vt 0.1985 0.9601 0.0000
vt 0.2048 0.9161 0.0000
vt 0.0094 0.6478 0.0000
vt 0.0151 0.5307 0.0000
vt 0.9797 0.8564 0.0000
vt 0.4366 0.8588 0.0000
vt 0.0937 0.9526 0.0000
vt 0.1183 0.9105 0.0000
vt 0.5465 0.9503 0.0000
vt 0.5699 0.9132 0.0000
vt 0.4663 0.8991 0.0000
vt 0.5049 0.9286 0.0000
vt 0.9359 0.8896 0.0000
vt 0.9756 0.9297 0.0000
vt 0.5431 0.8977 0.0000
vt 0.0298 0.9453 0.0000
vt 0.0688 0.9045 0.0000
vt 0.5783 0.5358 0.0000
vt 0.6856 0.5246 0.0000
vt 0.0848 0.4861 0.0000
vt 0.0810 0.5008 0.0000
vt 0.0107 0.4776 0.0000
vt 0.0186 0.4607 0.0000
vt 0.5655 0.5033 0.0000
vt 0.5712 0.5168 0.0000
vt 0.5013 0.4700 0.0000
vt 0.5014 0.4636 0.0000
vt 0.4345 0.5100 0.0000
vt 0.4297 0.5235 0.0000
vt 0.3148 0.5083 0.0000
vt 0.3142 0.4975 0.0000
vt 0.1804 0.5091 0.0000
vt 0.1814 0.4959 0.0000
vt 0.9048 0.4734 0.0000
vt 0.9102 0.4888 0.0000
vt 0.8098 0.4971 0.0000
vt 0.8076 0.4811 0.0000
vt 0.6780 0.4973 0.0000
vt 0.6715 0.4853 0.0000
vt 0.6686 0.2970 0.0000
vt 0.6675 0.2592 0.0000
vt 0.6978 0.3047 0.0000
vt 0.9103 0.5071 0.0000
vt 0.9867 0.4594 0.0000
vt 0.9916 0.4839 0.0000
vt 0.4197 0.5372 0.0000
vt 0.5018 0.4872 0.0000
vt 0.5821 0.5311 0.0000
vt 0.6879 0.5111 0.0000
vt 0.0779 0.5301 0.0000
vt 0.0135 0.5189 0.0000
vt 0.3160 0.5331 0.0000
vt 0.1810 0.5381 0.0000
vt 0.8131 0.5237 0.0000
vt 0.8929 0.4544 0.0000
vt 0.9510 0.4178 0.0000
vt 0.9616 0.4335 0.0000
vt 0.8994 0.4655 0.0000
vt 0.0497 0.4477 0.0000
vt 0.0957 0.4669 0.0000
vt 0.0897 0.4780 0.0000
vt 0.0303 0.4498 0.0000
vt 0.1890 0.4754 0.0000
vt 0.1845 0.4870 0.0000
vt 0.3217 0.4722 0.0000
vt 0.3157 0.4874 0.0000
vt 0.4369 0.4867 0.0000
vt 0.4362 0.5003 0.0000
vt 0.5016 0.4655 0.0000
vt 0.5015 0.4651 0.0000
vt 0.5618 0.4795 0.0000
vt 0.5632 0.4932 0.0000
vt 0.6628 0.4662 0.0000
vt 0.6670 0.4777 0.0000
vt 0.8006 0.4621 0.0000
vt 0.8045 0.4734 0.0000
vt 0.8087 0.5136 0.0000
vt 0.3149 0.5217 0.0000
vt 0.1830 0.5253 0.0000
vt 0.0828 0.5193 0.0000
vt 0.0097 0.5012 0.0000
vt 0.9760 0.4427 0.0000
vt 0.8586 0.4212 0.0000
vt 0.9164 0.3980 0.0000
vt 0.7832 0.4288 0.0000
vt 0.6681 0.4316 0.0000
vt 0.5765 0.4363 0.0000
vt 0.5015 0.4411 0.0000
vt 0.4204 0.4434 0.0000
vt 0.3177 0.4393 0.0000
vt 0.2070 0.4413 0.0000
vt 0.1273 0.4314 0.0000
vt 0.0726 0.4160 0.0000
vt 0.9115 0.3950 0.0000
vt 0.8552 0.4170 0.0000
vt 0.7808 0.4243 0.0000
vt 0.6674 0.4273 0.0000
vt 0.5754 0.4317 0.0000
vt 0.5012 0.4365 0.0000
vt 0.4214 0.4384 0.0000
vt 0.3187 0.4352 0.0000
vt 0.2095 0.4371 0.0000
vt 0.1301 0.4270 0.0000
vt 0.0770 0.4126 0.0000
vt 0.3953 0.3043 0.0000
vt 0.4208 0.2430 0.0000
vt 0.4227 0.2933 0.0000
vt 0.5068 0.2056 0.0000
vt 0.5022 0.2874 0.0000
vt 0.6108 0.2059 0.0000
vt 0.6080 0.2905 0.0000
vt 0.6689 0.3563 0.0000
vt 0.6037 0.3859 0.0000
vt 0.4974 0.3990 0.0000
vt 0.4267 0.3568 0.0000
# 169 texture coords

g Bag
usemtl wire_000000000
s 1
f 1/1/1 2/2/2 3/3/3 4/4/4 
f 5/5/5 6/6/6 7/7/7 8/8/8 
f 9/9/9 10/10/10 11/11/11 12/12/12 
f 13/13/13 14/14/14 15/15/15 16/16/16 
f 17/17/17 18/18/18 19/19/19 20/20/20 
f 21/21/21 8/8/8 7/7/7 22/22/22 
f 10/10/10 23/23/23 24/24/24 11/11/11 
f 25/25/25 26/26/26 27/27/27 12/28/12 
f 28/29/28 16/16/16 15/15/15 29/30/29 
f 18/18/18 30/31/30 31/32/31 19/19/19 
f 32/33/32 33/34/33 34/35/34 20/20/20 
f 2/2/2 35/36/35 36/37/36 3/3/3 
f 37/38/37 38/39/38 39/40/39 4/41/4 
f 6/6/6 18/18/18 17/17/17 7/7/7 
f 8/8/8 25/25/25 40/42/40 5/5/5 
f 14/14/14 10/10/10 9/9/9 15/15/15 
f 16/16/16 32/33/32 41/43/41 13/13/13 
f 5/5/5 40/42/40 42/44/42 43/45/43 
f 26/26/26 25/25/25 21/21/21 
f 7/7/7 17/17/17 22/22/22 
f 13/13/13 41/43/41 44/46/44 45/47/45 
f 33/34/33 32/33/32 16/16/16 28/29/28 
f 15/15/15 9/9/9 46/48/46 29/30/29 
f 47/49/47 6/6/6 5/5/5 43/45/43 
f 23/23/23 48/50/48 49/51/49 24/24/24 
f 50/52/50 14/14/14 13/13/13 45/47/45 
f 30/31/30 51/53/51 52/54/52 31/32/31 
f 30/31/30 18/18/18 6/6/6 47/49/47 
f 23/23/23 10/10/10 14/14/14 50/52/50 
f 3/55/3 53/56/53 37/38/37 4/41/4 
f 11/57/11 40/42/40 25/25/25 12/28/12 
f 19/19/19 41/43/41 32/33/32 20/20/20 
f 24/58/24 42/44/42 40/42/40 11/57/11 
f 27/59/27 46/48/46 9/9/9 12/12/12 
f 31/32/31 44/46/44 41/43/41 19/19/19 
f 34/35/34 54/60/54 17/17/17 20/20/20 
f 36/61/36 55/62/55 53/56/53 3/55/3 
f 39/63/39 56/64/56 1/1/1 4/4/4 
f 38/39/38 57/65/57 58/66/58 39/40/39 
f 35/36/35 59/67/59 60/68/60 36/37/36 
f 39/63/39 58/66/58 61/69/61 56/64/56 
f 36/61/36 60/70/60 62/71/62 55/62/55 
f 57/65/57 54/60/54 34/35/34 58/66/58 
f 59/67/59 46/48/46 27/59/27 60/68/60 
f 58/66/58 34/35/34 33/34/33 61/69/61 
f 60/70/60 27/27/27 26/26/26 62/71/62 
f 54/60/54 57/65/57 38/39/38 22/22/22 
f 22/22/22 37/38/37 53/56/53 21/21/21 
f 21/21/21 53/56/53 55/62/55 
f 38/39/38 37/38/37 22/22/22 
f 55/62/55 62/71/62 26/26/26 21/21/21 
f 46/48/46 59/67/59 35/36/35 29/30/29 
f 29/30/29 2/2/2 1/1/1 28/29/28 
f 28/29/28 1/1/1 56/64/56 
f 56/64/56 61/69/61 33/34/33 28/29/28 
f 35/36/35 2/2/2 29/30/29 
f 45/47/45 44/46/44 63/72/63 64/73/64 
f 17/17/17 54/60/54 22/22/22 
f 25/25/25 8/8/8 21/21/21 
f 65/74/65 66/75/66 67/76/67 68/77/68 
f 69/78/69 70/79/70 71/80/71 72/81/72 
f 73/82/73 74/83/74 75/84/75 76/85/76 
f 76/85/76 75/84/75 77/86/77 78/87/78 
f 78/87/78 77/86/77 66/75/66 65/74/65 
f 79/88/79 80/89/80 81/90/81 82/91/82 
f 82/91/82 81/90/81 83/92/83 84/93/84 
s 1048576
f 85/94/85 86/95/86 87/96/87 
s 1
f 88/97/88 80/89/80 67/98/67 89/99/89 
f 90/100/90 74/83/74 71/80/71 91/101/91 
f 92/102/92 70/79/70 83/92/83 93/103/93 
f 94/104/94 42/44/42 24/58/24 49/105/49 
f 63/72/63 44/46/44 31/32/31 52/54/52 
f 51/53/51 30/31/30 47/49/47 95/106/95 
f 95/106/95 47/49/47 43/45/43 96/107/96 
f 96/107/96 43/45/43 42/44/42 94/104/94 
f 48/50/48 23/23/23 50/52/50 97/108/97 
f 97/108/97 50/52/50 45/47/45 64/73/64 
f 98/109/98 99/110/99 100/111/100 101/112/101 
f 99/113/99 102/114/102 103/115/103 100/116/100 
f 102/114/102 104/117/104 105/118/105 103/115/103 
f 104/117/104 106/119/106 107/120/107 105/118/105 
f 106/119/106 108/121/108 109/122/109 107/120/107 
f 108/121/108 110/123/110 111/124/111 109/122/109 
f 110/123/110 112/125/112 113/126/113 111/124/111 
f 112/125/112 114/127/114 115/128/115 113/126/113 
f 114/127/114 116/129/116 117/130/117 115/128/115 
f 116/129/116 98/109/98 101/112/101 117/130/117 
f 49/51/49 48/50/48 88/97/88 89/99/89 
f 48/50/48 97/108/97 118/131/118 88/97/88 
f 97/108/97 64/73/64 93/103/93 118/131/118 
f 64/73/64 63/72/63 92/102/92 93/103/93 
f 63/72/63 52/54/52 91/101/91 92/102/92 
f 52/54/52 51/53/51 90/100/90 91/101/91 
f 51/53/51 95/106/95 119/132/119 90/100/90 
f 95/106/95 96/107/96 120/133/120 119/132/119 
f 96/107/96 94/104/94 121/134/121 120/133/120 
f 94/104/94 49/105/49 89/135/89 121/134/121 
f 66/75/66 121/134/121 89/135/89 67/76/67 
f 70/79/70 92/102/92 91/101/91 71/80/71 
f 74/83/74 90/100/90 119/132/119 75/84/75 
f 75/84/75 119/132/119 120/133/120 77/86/77 
f 77/86/77 120/133/120 121/134/121 66/75/66 
f 80/89/80 88/97/88 118/131/118 81/90/81 
f 81/90/81 118/131/118 93/103/93 83/92/83 
f 80/89/80 79/88/79 68/136/68 67/98/67 
f 74/83/74 73/82/73 72/81/72 71/80/71 
f 70/79/70 69/78/69 84/93/84 83/92/83 
f 79/88/79 101/112/101 100/111/100 68/136/68 
f 68/77/68 100/116/100 103/115/103 65/74/65 
f 65/74/65 103/115/103 105/118/105 78/87/78 
f 78/87/78 105/118/105 107/120/107 76/85/76 
f 76/85/76 107/120/107 109/122/109 73/82/73 
f 73/82/73 109/122/109 111/124/111 72/81/72 
f 72/81/72 111/124/111 113/126/113 69/78/69 
f 69/78/69 113/126/113 115/128/115 84/93/84 
f 84/93/84 115/128/115 117/130/117 82/91/82 
f 82/91/82 117/130/117 101/112/101 79/88/79 
f 99/110/99 98/109/98 122/137/122 123/138/123 
f 98/109/98 116/129/116 124/139/124 122/137/122 
f 116/129/116 114/127/114 125/140/125 124/139/124 
f 114/127/114 112/125/112 126/141/126 125/140/125 
f 112/125/112 110/123/110 127/142/127 126/141/126 
f 110/123/110 108/121/108 128/143/128 127/142/127 
f 108/121/108 106/119/106 129/144/129 128/143/128 
f 106/119/106 104/117/104 130/145/130 129/144/129 
f 104/117/104 102/114/102 131/146/131 130/145/130 
f 102/114/102 99/113/99 123/147/123 131/146/131 
f 87/148/132 123/138/123 122/137/122 132/149/133 
f 132/149/133 122/137/122 124/139/124 133/150/134 
f 133/150/134 124/139/124 125/140/125 134/151/135 
f 134/151/135 125/140/125 126/141/126 135/152/136 
f 135/152/136 126/141/126 127/142/127 136/153/137 
f 136/153/137 127/142/127 128/143/128 137/154/138 
f 137/154/138 128/143/128 129/144/129 138/155/139 
f 138/155/139 129/144/129 130/145/130 139/156/140 
f 139/156/140 130/145/130 131/146/131 86/157/141 
f 86/157/141 131/146/131 123/147/123 87/158/132 
s 1048576
f 136/159/142 137/160/143 140/161/144 
f 140/161/144 137/160/143 138/162/145 141/163/146 
f 141/163/146 138/162/145 139/164/147 142/165/148 
f 142/165/148 139/164/147 86/95/86 85/94/85 
f 87/96/87 132/166/149 85/94/85 
f 85/94/85 132/166/149 133/167/150 142/165/148 
f 142/165/148 133/167/150 134/168/151 141/163/146 
f 141/163/146 134/168/151 135/169/152 140/161/144 
f 140/161/144 135/169/152 136/159/142 
# 134 polygons - 12 triangles

